HIERARCHY
ROOT Hips
{
	OFFSET 0.000000 0.000000 0.000000
	CHANNELS 6 Xposition Yposition Zposition Zrotation Yrotation Xrotation 
	JOINT LowerBack
	{
		OFFSET 0.000000 0.000000 0.000000
		CHANNELS 3 Zrotation Yrotation Xrotation
		JOINT Spine
		{
			OFFSET 0.028270 2.035590 -0.193380
			CHANNELS 3 Zrotation Yrotation Xrotation
			JOINT Spine1
			{
				OFFSET 0.056720 2.048850 -0.042750
				CHANNELS 3 Zrotation Yrotation Xrotation
				JOINT Neck
				{
					OFFSET 0.000000 0.000000 0.000000
					CHANNELS 3 Zrotation Yrotation Xrotation
					JOINT Neck1
					{
						OFFSET -0.054170 1.746240 0.172020
						CHANNELS 3 Zrotation Yrotation Xrotation
						JOINT Head
						{
							OFFSET 0.104070 1.761360 -0.123970
							CHANNELS 3 Zrotation Yrotation Xrotation
							End Site
							{
								OFFSET 0.000000 0.000000 0.000000
							}
						}
					}
				}
				JOINT LeftShoulder
				{
					OFFSET 0.000000 0.000000 0.000000
					CHANNELS 3 Zrotation Yrotation Xrotation
					JOINT LeftArm
					{
						OFFSET 3.362410 1.200890 -0.311210
						CHANNELS 3 Zrotation Yrotation Xrotation
						JOINT LeftForeArm
						{
							OFFSET 4.983000 -0.000000 -0.000000
							CHANNELS 3 Zrotation Yrotation Xrotation
							JOINT LeftHand
							{
								OFFSET 3.483560 -0.000000 -0.000000
								CHANNELS 3 Zrotation Yrotation Xrotation
								JOINT LeftFingerBase
								{
									OFFSET 0.000000 0.000000 0.000000
									CHANNELS 3 Zrotation Yrotation Xrotation
									JOINT LeftHandIndex1
									{
										OFFSET 0.715260 -0.000000 -0.000000
										CHANNELS 3 Zrotation Yrotation Xrotation
										End Site
										{
											OFFSET 0.000000 0.000000 0.000000
										}
									}
								}
								JOINT LThumb
								{
									OFFSET 0.000000 0.000000 0.000000
									CHANNELS 3 Zrotation Yrotation Xrotation
									End Site
									{
										OFFSET 0.000000 0.000000 0.000000
									}
								}
							}
						}
					}
				}
				JOINT RightShoulder
				{
					OFFSET 0.000000 0.000000 0.000000
					CHANNELS 3 Zrotation Yrotation Xrotation
					JOINT RightArm
					{
						OFFSET -3.136600 1.374050 -0.404650
						CHANNELS 3 Zrotation Yrotation Xrotation
						JOINT RightForeArm
						{
							OFFSET -5.241900 -0.000000 -0.000000
							CHANNELS 3 Zrotation Yrotation Xrotation
							JOINT RightHand
							{
								OFFSET -3.444170 -0.000000 -0.000000
								CHANNELS 3 Zrotation Yrotation Xrotation
								JOINT RightFingerBase
								{
									OFFSET 0.000000 0.000000 0.000000
									CHANNELS 3 Zrotation Yrotation Xrotation
									JOINT RightHandIndex1
									{
										OFFSET -0.622530 -0.000000 -0.000000
										CHANNELS 3 Zrotation Yrotation Xrotation
										End Site
										{
											OFFSET 0.000000 0.000000 0.000000
										}
									}
								}
								JOINT RThumb
								{
									OFFSET 0.000000 0.000000 0.000000
									CHANNELS 3 Zrotation Yrotation Xrotation
									End Site
									{
										OFFSET 0.000000 0.000000 0.000000
									}
								}
							}
						}
					}
				}
			}
		}
	}
}
}
MOTION
Frames: 15
Frame Time: 0.008333
4.174152 16.407000 -1.928617 108.426484 -67.453397 -116.745757 -9.008871 -1.373031 8.494807 -2.087352 -0.942410 -1.745561 -4.352620 -0.920134 -1.857553 5.194082 -7.919065 -6.332851 -2.244480 -0.177441 0.211068 0.000000 0.000000 0.000000 6.626975 2.846745 1.432923 -52.185223 25.416714 29.023270 -2.151297 -54.922744 -0.004537 -6.421668 -8.235938 0.460266 -0.001634 -0.046053 -0.000000 0.000000 0.000000 0.000000 0.000000 0.000000 0.000000 6.999477 -2.896921 0.859830 76.751663 2.839814 6.304493 2.571210 33.394368 0.017066 0.130828 15.421740 0.011328 0.056434 -0.207751 0.000000 0.000000 0.000000 0.000000 0.000000 0.000000 0.000000 
4.190262 16.379183 -1.926326 107.910288 -67.707373 -116.175197 -8.959351 -1.382500 8.520558 -2.075925 -0.948598 -1.746042 -4.379297 -0.925065 -1.864268 5.321732 -7.992927 -6.420609 -2.246221 -0.176306 0.186464 0.000000 0.000000 0.000000 6.687628 3.011367 1.390378 -52.765281 25.733936 28.767029 -2.107890 -55.518118 -0.004422 -6.316072 -8.256219 0.454158 0.000955 -0.042212 -0.000000 0.000000 0.000000 0.000000 0.000000 0.000000 0.000000 7.132961 -2.953070 0.900624 76.884244 2.492980 5.951317 2.606262 33.044252 0.017580 0.242103 15.415986 0.026527 0.056979 -0.204789 0.000000 0.000000 0.000000 0.000000 0.000000 0.000000 0.000000 
4.212525 16.352934 -1.924182 107.343426 -68.005150 -115.531472 -8.890806 -1.391495 8.563616 -2.060608 -0.953913 -1.743693 -4.409607 -0.928772 -1.873254 5.448305 -8.062272 -6.522779 -2.251266 -0.175124 0.156822 0.000000 0.000000 0.000000 6.749427 3.186631 1.358365 -53.388889 25.981495 28.463401 -2.065103 -56.141490 -0.004292 -6.228135 -8.290299 0.450150 0.003685 -0.037771 -0.000000 0.000000 0.000000 0.000000 0.000000 0.000000 0.000000 7.273243 -2.996686 0.944119 77.005975 2.157915 5.596650 2.636008 32.766096 0.018005 0.331039 15.419356 0.038726 0.057472 -0.202307 0.000000 0.000000 0.000000 0.000000 0.000000 0.000000 0.000000 
4.240441 16.329385 -1.921964 106.745799 -68.351327 -114.829189 -8.790322 -1.399110 8.612557 -2.038839 -0.957431 -1.741106 -4.444337 -0.930603 -1.884626 5.565755 -8.121572 -6.628604 -2.261949 -0.174257 0.125289 0.000000 0.000000 0.000000 6.794609 3.364096 1.333539 -54.052669 26.173352 28.106546 -2.023292 -56.784468 -0.004180 -6.164698 -8.335307 0.448443 0.006617 -0.032956 -0.000000 0.000000 0.000000 0.000000 0.000000 0.000000 0.000000 7.421082 -3.025922 0.987893 77.111504 1.827239 5.237878 2.661281 32.554306 0.018352 0.394111 15.430242 0.047325 0.057994 -0.200213 0.000000 0.000000 0.000000 0.000000 0.000000 0.000000 0.000000 
4.273122 16.309689 -1.919843 106.142056 -68.736609 -114.095340 -8.655009 -1.403718 8.654969 -2.009816 -0.957350 -1.738861 -4.482113 -0.928795 -1.890082 5.668752 -8.183838 -6.732035 -2.279288 -0.173895 0.093735 0.000000 0.000000 0.000000 6.815099 3.563697 1.309788 -54.754717 26.290978 27.718035 -1.982406 -57.414697 -0.004086 -6.112948 -8.395483 0.448434 0.009663 -0.027908 -0.000000 0.000000 0.000000 0.000000 0.000000 0.000000 0.000000 7.580652 -3.061037 1.026342 77.189519 1.518531 4.909058 2.683618 32.383730 0.018644 0.421021 15.446646 0.050924 0.058745 -0.198304 0.000000 0.000000 0.000000 0.000000 0.000000 0.000000 0.000000 
4.309566 16.295148 -1.918799 105.579072 -69.124509 -113.379616 -8.512037 -1.400945 8.671978 -1.980500 -0.948924 -1.742625 -4.527601 -0.919124 -1.897048 5.762664 -8.224144 -6.809905 -2.308141 -0.174802 0.068858 0.000000 0.000000 0.000000 6.793196 3.751487 1.281735 -55.484852 26.413306 27.249903 -1.943772 -58.043766 -0.004114 -6.096282 -8.457110 0.451021 0.013035 -0.023208 -0.000000 0.000000 0.000000 0.000000 0.000000 0.000000 0.000000 7.776098 -3.078361 1.058316 77.236862 1.205351 4.574545 2.704685 32.241413 0.018915 0.436685 15.466702 0.053023 0.059550 -0.196445 0.000000 0.000000 0.000000 0.000000 0.000000 0.000000 0.000000 
4.347898 16.286679 -1.919259 105.168092 -69.451274 -112.840889 -8.402499 -1.377643 8.678612 -1.960922 -0.919661 -1.744852 -4.577663 -0.888380 -1.890820 5.849534 -8.275973 -6.860690 -2.347501 -0.176916 0.050883 0.000000 0.000000 0.000000 6.737235 3.978867 1.239099 -56.241669 26.503938 26.752020 -1.906668 -58.617659 -0.004230 -6.073345 -8.534677 0.453907 0.016485 -0.019047 -0.000000 0.000000 0.000000 0.000000 0.000000 0.000000 0.000000 8.018899 -3.115904 1.076121 77.235463 0.931690 4.312598 2.726187 32.084751 0.019185 0.427674 15.482212 0.051723 0.060677 -0.194335 0.000000 0.000000 0.000000 0.000000 0.000000 0.000000 0.000000 
4.386706 16.285173 -1.922679 105.088379 -69.602097 -112.730036 -8.416197 -1.311704 8.705287 -1.975353 -0.848705 -1.738663 -4.637168 -0.815268 -1.880287 5.946223 -8.321014 -6.863953 -2.400871 -0.180805 0.045052 0.000000 0.000000 0.000000 6.641593 4.223548 1.175276 -57.016386 26.659218 26.157930 -1.872371 -59.153745 -0.004582 -6.071301 -8.612410 0.458283 0.020360 -0.016248 -0.000000 0.000000 0.000000 0.000000 0.000000 0.000000 0.000000 8.343525 -3.144787 1.080413 77.183616 0.685292 4.101698 2.749759 31.890305 0.019494 0.429789 15.492862 0.051922 0.061837 -0.191884 0.000000 0.000000 0.000000 0.000000 0.000000 0.000000 0.000000 
4.423167 16.290636 -1.928143 105.676680 -69.460400 -113.548704 -8.603224 -1.161556 8.856537 -2.040997 -0.697849 -1.695720 -4.700447 -0.659742 -1.861404 6.044933 -8.377404 -6.815118 -2.464152 -0.186146 0.051467 0.000000 0.000000 0.000000 6.507291 4.539064 1.079589 -57.817779 26.881421 25.496838 -1.839272 -59.613197 -0.005205 -6.055126 -8.699607 0.462051 0.024591 -0.015209 -0.000000 0.000000 0.000000 0.000000 0.000000 0.000000 0.000000 8.733752 -3.164281 1.066951 77.069459 0.491685 4.004216 2.777496 31.630109 0.019858 0.448186 15.488740 0.054221 0.063082 -0.189003 0.000000 0.000000 0.000000 0.000000 0.000000 0.000000 0.000000 
4.453859 16.302923 -1.932474 107.353045 -68.992998 -115.876874 -8.900061 -0.883346 9.236969 -2.147109 -0.426311 -1.591362 -4.761209 -0.380280 -1.839343 6.121472 -8.446365 -6.709063 -2.530860 -0.192454 0.070785 0.000000 0.000000 0.000000 6.301298 4.964835 0.943334 -58.669479 27.218446 24.748487 -1.805996 -59.989150 -0.006163 -6.024765 -8.791086 0.464903 0.029335 -0.016248 -0.000000 0.000000 0.000000 0.000000 0.000000 0.000000 0.000000 9.135230 -3.149324 1.035382 76.879800 0.353993 4.061847 2.814557 31.288044 0.020343 0.502686 15.467443 0.061420 0.064445 -0.185791 0.000000 0.000000 0.000000 0.000000 0.000000 0.000000 0.000000 
4.474407 16.322062 -1.930870 110.275456 -68.312748 -119.877420 -9.096018 -0.473354 9.841374 -2.238852 -0.031029 -1.435388 -4.809650 0.024391 -1.814183 6.137996 -8.529303 -6.551953 -2.591889 -0.198925 0.102272 0.000000 0.000000 0.000000 5.976907 5.544161 0.762352 -59.605134 27.687901 23.917398 -1.772052 -60.260708 -0.007356 -5.969599 -8.886265 0.465841 0.034304 -0.018887 -0.000000 0.000000 0.000000 0.000000 0.000000 0.000000 0.000000 9.463023 -3.101898 0.983046 76.589703 0.255144 4.314944 2.867445 30.869347 0.021034 0.613117 15.424664 0.076219 0.066062 -0.182251 0.000000 0.000000 0.000000 0.000000 0.000000 0.000000 0.000000 
4.482715 16.348536 -1.923974 113.734571 -67.534727 -124.598888 -9.122127 -0.023810 10.473222 -2.285208 0.402158 -1.279456 -4.842549 0.465594 -1.773158 6.108303 -8.636698 -6.361052 -2.646495 -0.205358 0.144260 0.000000 0.000000 0.000000 5.538326 6.254642 0.544942 -60.624386 28.281196 22.996850 -1.742095 -60.405257 -0.008532 -5.884382 -8.983944 0.464376 0.038727 -0.022131 -0.000000 0.000000 0.000000 0.000000 0.000000 0.000000 0.000000 9.731062 -3.088401 0.904106 76.180704 0.178725 4.772153 2.934421 30.392703 0.021921 0.796535 15.360443 0.100616 0.067788 -0.178041 0.000000 0.000000 0.000000 0.000000 0.000000 0.000000 0.000000 
4.479712 16.382530 -1.916768 116.778046 -66.743546 -128.763594 -9.090079 0.342582 10.859241 -2.299839 0.763570 -1.178492 -4.863033 0.832354 -1.696429 6.086109 -8.795696 -6.159506 -2.699556 -0.211999 0.193101 0.000000 0.000000 0.000000 5.034540 7.030200 0.305775 -61.691725 28.978385 21.968334 -1.723776 -60.412487 -0.009449 -5.768513 -9.080387 0.460219 0.041682 -0.025354 -0.000000 0.000000 0.000000 0.000000 0.000000 0.000000 0.000000 10.028438 -3.199120 0.794923 75.650067 0.134859 5.432581 3.006908 29.876264 0.022920 1.054581 15.281241 0.134914 0.069352 -0.172799 0.000000 0.000000 0.000000 0.000000 0.000000 0.000000 0.000000 
4.466331 16.423310 -1.910532 119.212189 -66.015383 -132.033621 -9.015418 0.584698 10.877272 -2.293141 1.013520 -1.142779 -4.869118 1.085132 -1.573761 6.080332 -9.010411 -5.965322 -2.751152 -0.218752 0.244750 0.000000 0.000000 0.000000 4.484883 7.851499 0.059097 -62.795549 29.740494 20.827904 -1.721480 -60.262303 -0.009921 -5.619555 -9.174685 0.452983 0.042490 -0.028150 -0.000000 0.000000 0.000000 0.000000 0.000000 0.000000 0.000000 10.366101 -3.446261 0.654884 75.006636 0.125397 6.278304 3.081259 29.355568 0.023958 1.389081 15.189937 0.179011 0.070571 -0.166646 0.000000 0.000000 0.000000 0.000000 0.000000 0.000000 0.000000 
4.443499 16.469743 -1.904269 121.281533 -65.378263 -134.662134 -8.848120 0.722554 10.547110 -2.267239 1.163165 -1.154708 -4.858481 1.235318 -1.407111 6.076014 -9.277542 -5.793805 -2.798249 -0.225223 0.294894 0.000000 0.000000 0.000000 3.886227 8.720298 -0.183124 -63.933463 30.529388 19.576827 -1.735960 -59.941231 -0.009860 -5.437860 -9.263895 0.442473 0.040890 -0.030280 -0.000000 0.000000 0.000000 0.000000 0.000000 0.000000 0.000000 10.710375 -3.801486 0.488621 74.263824 0.151030 7.294246 3.156201 28.871995 0.024968 1.789471 15.090424 0.231308 0.071374 -0.159991 0.000000 0.000000 0.000000 0.000000 0.000000 0.000000 0.000000 
